<?xml version="1.0" encoding="UTF-8"?>
<!DOCTYPE svg PUBLIC "-//W3C//DTD SVG 1.1//EN" "http://www.w3.org/Graphics/SVG/1.1/DTD/svg11.dtd">
<svg xmlns="http://www.w3.org/2000/svg" version="1.1" width="714px" height="699px" style="shape-rendering:geometricPrecision; text-rendering:geometricPrecision; image-rendering:optimizeQuality; fill-rule:evenodd; clip-rule:evenodd" xmlns:xlink="http://www.w3.org/1999/xlink">
<g><path style="opacity:0.963" fill="#000000" d="M 363.5,-0.5 C 369.167,-0.5 374.833,-0.5 380.5,-0.5C 397.571,5.97248 405.237,18.3058 403.5,36.5C 420.374,48.537 433.874,63.537 444,81.5C 463.561,116.969 477.228,154.636 485,194.5C 497.45,257.921 502.117,321.921 499,386.5C 535.452,361.052 567.785,331.052 596,296.5C 609.367,279.098 619.034,259.765 625,238.5C 631.046,206.877 618.88,185.71 588.5,175C 563.316,165.863 537.316,161.03 510.5,160.5C 510.5,159.5 510.5,158.5 510.5,157.5C 535.926,155.909 560.926,158.409 585.5,165C 630.384,177.921 646.884,207.088 635,252.5C 626.487,278.2 613.82,301.534 597,322.5C 567.165,358.338 533.498,390.004 496,417.5C 492.58,446.685 488.08,475.685 482.5,504.5C 499.744,507.54 517.077,510.04 534.5,512C 563.486,515.273 592.153,513.607 620.5,507C 628.895,504.634 636.562,500.967 643.5,496C 632.338,475.636 635.338,457.636 652.5,442C 655.186,440.632 657.853,439.299 660.5,438C 647.839,408.334 630.006,382.167 607,359.5C 604.009,342.826 610.509,337.326 626.5,343C 646.036,361.187 662.536,381.687 676,404.5C 681.641,415.091 686.308,426.091 690,437.5C 702.444,443.099 710.277,452.432 713.5,465.5C 713.5,470.833 713.5,476.167 713.5,481.5C 707.338,502.16 693.504,512.16 672,511.5C 657.826,525.173 640.992,534.006 621.5,538C 572.553,546.422 523.886,544.922 475.5,533.5C 468.094,556.548 459.594,579.215 450,601.5C 437.982,629.39 421.149,653.89 399.5,675C 384.943,688.28 367.943,696.114 348.5,698.5C 345.167,698.5 341.833,698.5 338.5,698.5C 313.618,694.634 293.451,682.634 278,662.5C 259.613,637.388 246.279,609.722 238,579.5C 236.146,566.688 241.646,561.188 254.5,563C 256.624,564.122 258.457,565.622 260,567.5C 268.918,593.671 281.252,618.005 297,640.5C 324.856,675.875 354.523,677.541 386,645.5C 403.199,625.126 416.866,602.459 427,577.5C 433.537,561.257 439.37,544.757 444.5,528C 444.355,527.228 444.022,526.561 443.5,526C 414.71,518.292 386.543,508.792 359,497.5C 301.917,524.304 242.083,541.804 179.5,550C 153.067,552.534 126.734,551.867 100.5,548C 81.5402,544.356 64.3735,536.856 49,525.5C 23.8944,528.706 7.39439,518.373 -0.5,494.5C -0.5,488.167 -0.5,481.833 -0.5,475.5C 4.35654,460.975 14.0232,450.975 28.5,445.5C 39.5823,413.947 56.5823,386.114 79.5,362C 90.9714,355.765 98.3048,358.931 101.5,371.5C 100.846,373.115 100.346,374.782 100,376.5C 82.122,398.064 67.9554,421.897 57.5,448C 76.9868,458.479 84.4868,474.646 80,496.5C 79.03,499.744 77.8634,502.91 76.5,506C 76.6448,506.772 76.9781,507.439 77.5,508C 98.7044,517.869 121.038,522.369 144.5,521.5C 205.874,518.626 264.874,505.292 321.5,481.5C 256.193,451.376 196.859,412.542 143.5,365C 121.315,344.165 102.148,320.998 86,295.5C 74.5741,276.723 68.0741,256.39 66.5,234.5C 67.1655,209.661 77.8321,190.494 98.5,177C 114.276,167.803 131.276,162.136 149.5,160C 196.506,155.733 242.84,159.733 288.5,172C 338.699,185.065 387.033,203.065 433.5,226C 436.226,229.63 435.226,230.963 430.5,230C 369.504,202.5 305.837,184.167 239.5,175C 214.198,172.164 188.865,171.83 163.5,174C 145.887,175.903 129.22,180.903 113.5,189C 91.0944,202.553 82.9277,222.053 89,247.5C 92.3628,259.559 97.3628,270.892 104,281.5C 116.949,300.793 131.782,318.626 148.5,335C 211.059,390.729 281.559,434.229 360,465.5C 397.672,449.002 433.672,429.668 468,407.5C 477.396,328.676 474.396,250.342 459,172.5C 452.168,137.995 439.835,105.662 422,75.5C 415.449,65.9424 407.782,57.2757 399,49.5C 390.389,61.0428 378.889,65.5428 364.5,63C 353.642,59.9713 345.642,53.4713 340.5,43.5C 327.726,50.7623 316.559,60.0956 307,71.5C 295.508,86.4773 285.008,102.144 275.5,118.5C 275.167,117.667 274.833,116.833 274.5,116C 284.138,89.7078 298.805,66.7078 318.5,47C 324.778,41.3894 331.612,36.556 339,32.5C 339.824,15.8668 347.991,4.86678 363.5,-0.5 Z M 362.5,276.5 C 385.196,277.032 397.862,288.532 400.5,311C 397.054,336.22 382.721,347.22 357.5,344C 338.569,337.059 330.402,323.559 333,303.5C 337.642,288.686 347.476,279.686 362.5,276.5 Z M 461.5,440.5 C 462.649,440.791 463.316,441.624 463.5,443C 460.484,460.911 457.151,478.745 453.5,496.5C 434.051,492.056 415.051,486.222 396.5,479C 419.22,467.652 440.886,454.819 461.5,440.5 Z"/></g>
<g><path style="opacity:0.978" fill="#000000" d="M 363.5,238.5 C 405.45,238.714 435.95,257.381 455,294.5C 471.031,336.501 463.198,373.334 431.5,405C 426.243,409.42 420.577,413.254 414.5,416.5C 413.805,406.15 412.972,395.816 412,385.5C 403.886,360.681 386.719,349.181 360.5,351C 338.769,355.969 326.269,369.469 323,391.5C 322.611,399.84 322.778,408.173 323.5,416.5C 294.751,401.199 278.251,377.199 274,344.5C 271.427,298.794 290.593,265.961 331.5,246C 341.937,241.888 352.604,239.388 363.5,238.5 Z M 362.5,276.5 C 347.476,279.686 337.642,288.686 333,303.5C 330.402,323.559 338.569,337.059 357.5,344C 382.721,347.22 397.054,336.22 400.5,311C 397.862,288.532 385.196,277.032 362.5,276.5 Z"/></g>
<g><path style="opacity:0.96" fill="#000000" d="M 363.5,285.5 C 385.383,287.262 394.217,298.928 390,320.5C 382.322,334.584 370.822,339.084 355.5,334C 340.602,324.211 337.435,311.377 346,295.5C 350.669,289.921 356.502,286.588 363.5,285.5 Z"/></g>
<g><path style="opacity:0.975" fill="#000000" d="M 360.5,359.5 C 384.965,357.474 399.465,368.474 404,392.5C 404.818,402.411 404.651,412.244 403.5,422C 379.877,430.826 356.377,430.66 333,421.5C 332.611,413.493 332.111,405.493 331.5,397.5C 332.199,377.821 341.866,365.154 360.5,359.5 Z"/></g>
</svg>
